<svg width="134" height="32" viewBox="0 0 134 32" fill="none" xmlns="http://www.w3.org/2000/svg">
  <g clip-path="url(#clip0_6144_158748)">
    <path
      d="M49.7383 28.1264V24.4211H51.1572C51.4977 24.4211 51.7247 24.4211 51.895 24.4773C52.122 24.5334 52.349 24.5896 52.4626 24.758C52.6896 24.9264 52.8598 25.151 52.9166 25.3755C52.9734 25.6001 53.0869 25.9369 53.0869 26.2738C53.0869 26.5545 53.0301 26.779 52.9734 27.0036C52.9166 27.2282 52.8031 27.3966 52.6896 27.565C52.5761 27.7334 52.4626 27.8457 52.2923 27.9018C52.1788 27.958 52.0085 28.0703 51.7815 28.0703C51.6112 28.1264 51.3842 28.1264 51.1572 28.1264H49.7383ZM50.2491 27.6773H51.1004C51.3842 27.6773 51.5545 27.6773 51.7247 27.6211C51.895 27.565 52.0085 27.5089 52.0653 27.4527C52.1788 27.3404 52.2923 27.172 52.349 27.0036C52.4058 26.8352 52.4626 26.5545 52.4626 26.2738C52.4626 25.8808 52.4058 25.6001 52.2355 25.3755C52.122 25.151 51.9517 25.0387 51.7247 24.9825C51.5545 24.9264 51.3274 24.9264 51.0437 24.9264H50.1923V27.6773H50.2491Z"
      fill="#63687A" />
    <path d="M55.8682 28.1264V24.4211H56.379V28.1264H55.8682Z" fill="#63687A" />
    <path
      d="M61.1466 26.6667V26.2176H62.8493V27.565C62.5655 27.7334 62.3385 27.9018 62.0547 28.0141C61.7709 28.1264 61.4871 28.1825 61.2034 28.1825C60.8061 28.1825 60.4655 28.1264 60.125 27.958C59.7845 27.7896 59.5574 27.565 59.3872 27.2843C59.2169 27.0036 59.1602 26.6667 59.1602 26.2738C59.1602 25.9369 59.2169 25.6001 59.3872 25.2632C59.5574 24.9264 59.7845 24.7018 60.125 24.5896C60.4655 24.4773 60.8061 24.365 61.2034 24.365C61.4871 24.365 61.7709 24.4211 61.9979 24.4773C62.225 24.5895 62.3952 24.7018 62.5655 24.8141C62.7358 24.9264 62.7925 25.151 62.8493 25.4317L62.3385 25.5439C62.2817 25.3755 62.225 25.2071 62.1114 25.0948C61.9979 24.9825 61.8844 24.9264 61.7142 24.8141C61.5439 24.758 61.3736 24.7018 61.1466 24.7018C60.9196 24.7018 60.6926 24.758 60.5223 24.8141C60.352 24.8703 60.1818 24.9825 60.0682 25.0948C59.9547 25.2071 59.898 25.3194 59.7845 25.4317C59.671 25.6562 59.6142 25.8808 59.6142 26.1615C59.6142 26.4983 59.671 26.779 59.7845 27.0036C59.898 27.2281 60.0682 27.3966 60.352 27.5088C60.6358 27.6211 60.8628 27.6773 61.0898 27.6773C61.3169 27.6773 61.5439 27.6211 61.7709 27.565C61.9979 27.5088 62.1682 27.3966 62.2817 27.2843V26.6106H61.1466V26.6667Z"
      fill="#63687A" />
    <path d="M65.6865 28.1264V24.4211H66.1973V28.1264H65.6865Z" fill="#63687A" />
    <path d="M70.1707 28.1264V24.8703H68.8086V24.4211H72.0437V24.8703H70.6815V28.1264H70.1707Z" fill="#63687A" />
    <path
      d="M73.6328 28.1264L75.1652 24.4211H75.7328L77.3787 28.1264H76.8679L76.4138 27.0036H74.7112L74.2571 28.1264H73.6328ZM74.8247 26.6106H76.1868L75.7895 25.6001C75.676 25.2632 75.5625 25.0387 75.5057 24.8141C75.449 25.0387 75.3922 25.2632 75.2787 25.5439L74.8247 26.6106Z"
      fill="#63687A" />
    <path d="M79.8184 28.1264V24.4211H80.3292V27.6773H82.3156V28.1264H79.8184V28.1264Z" fill="#63687A" />
    <path
      d="M90.4316 27.6773C90.2613 27.8457 90.0911 27.958 89.9208 28.0703C89.7505 28.1264 89.5235 28.1825 89.2965 28.1825C88.8992 28.1825 88.5587 28.0703 88.3316 27.7896C88.1614 27.565 88.0479 27.3404 88.0479 27.1159C88.0479 26.8913 88.1046 26.6668 88.2749 26.4983C88.4451 26.3299 88.6722 26.1615 89.0127 25.9931C88.8424 25.8247 88.7289 25.6562 88.6722 25.5439C88.6154 25.4317 88.5587 25.3194 88.5587 25.2071C88.5587 24.9825 88.6722 24.8141 88.8424 24.6457C89.0127 24.4773 89.2965 24.4211 89.5803 24.4211C89.864 24.4211 90.0911 24.4773 90.2613 24.6457C90.4316 24.8141 90.5451 24.9825 90.5451 25.2071C90.5451 25.544 90.2613 25.8808 89.7505 26.1054L90.4883 26.9475C90.5451 26.779 90.6586 26.6106 90.6586 26.4422L91.1694 26.5545C91.0559 26.8913 90.9424 27.1159 90.8289 27.3404C90.9991 27.565 91.2262 27.7334 91.4532 27.9018L91.1127 28.2387C90.8856 28.0703 90.6586 27.9018 90.4316 27.6773ZM90.1478 27.2843L89.2397 26.2738C88.9559 26.4422 88.7857 26.5545 88.6722 26.6668C88.5587 26.779 88.5587 26.8913 88.5587 27.0597C88.5587 27.2282 88.6154 27.3404 88.7289 27.5089C88.8424 27.6773 89.0695 27.7334 89.2965 27.7334C89.4667 27.7334 89.5803 27.6773 89.7505 27.6211C89.9208 27.565 90.0343 27.4527 90.1478 27.2843ZM89.4667 25.7685C89.6938 25.6562 89.8073 25.544 89.864 25.4878C89.9208 25.4317 89.9775 25.3194 89.9775 25.2071C89.9775 25.0948 89.9208 24.9825 89.864 24.9264C89.8073 24.8703 89.6938 24.8141 89.5235 24.8141C89.41 24.8141 89.2965 24.8703 89.183 24.9264C89.0695 24.9825 89.0695 25.0948 89.0695 25.2071C89.0695 25.2632 89.0695 25.3194 89.1262 25.3755C89.183 25.4317 89.183 25.4878 89.2965 25.6001L89.4667 25.7685Z"
      fill="#63687A" />
    <path
      d="M99.3426 26.6667V26.2176H101.045V27.565C100.762 27.7334 100.535 27.9018 100.251 28.0141C99.967 28.1264 99.6832 28.1825 99.3994 28.1825C99.0021 28.1825 98.6616 28.1264 98.321 27.958C97.9805 27.7896 97.7535 27.565 97.5832 27.2843C97.413 27.0036 97.3562 26.6667 97.3562 26.2738C97.3562 25.9369 97.413 25.6001 97.5832 25.2632C97.7535 24.9264 97.9805 24.7018 98.321 24.5896C98.6616 24.4773 99.0021 24.365 99.3994 24.365C99.6832 24.365 99.967 24.4211 100.194 24.4773C100.421 24.5895 100.591 24.7018 100.762 24.8141C100.932 24.9264 100.989 25.151 101.045 25.4317L100.535 25.5439C100.478 25.3755 100.421 25.2071 100.307 25.0948C100.194 24.9825 100.08 24.9264 99.9102 24.8141C99.7399 24.758 99.5697 24.7018 99.3426 24.7018C99.1156 24.7018 98.8886 24.758 98.7183 24.8141C98.5481 24.8703 98.3778 24.9825 98.2643 25.0948C98.1508 25.2071 98.094 25.3194 97.9805 25.4317C97.867 25.6562 97.8102 25.8808 97.8102 26.1615C97.8102 26.4983 97.867 26.779 97.9805 27.0036C98.094 27.2281 98.2643 27.3966 98.5481 27.5088C98.8318 27.6211 99.0589 27.6773 99.2859 27.6773C99.5129 27.6773 99.7399 27.6211 99.967 27.565C100.194 27.5088 100.364 27.3966 100.478 27.2843V26.6106H99.3426V26.6667Z"
      fill="#63687A" />
    <path d="M103.713 28.1264V24.4211H104.224V27.6773H106.21V28.1264H103.713V28.1264Z" fill="#63687A" />
    <path
      d="M108.707 26.3299C108.707 25.7124 108.877 25.2632 109.275 24.8703C109.672 24.4773 110.126 24.365 110.693 24.365C111.091 24.365 111.431 24.4211 111.715 24.5896C111.999 24.758 112.226 24.9825 112.396 25.2632C112.566 25.5439 112.623 25.8808 112.623 26.2738C112.623 26.6667 112.566 27.0036 112.396 27.2843C112.226 27.565 111.999 27.7896 111.715 27.958C111.431 28.1264 111.091 28.1825 110.75 28.1825C110.353 28.1825 110.012 28.1264 109.729 27.958C109.445 27.7896 109.218 27.565 109.048 27.2843C108.764 26.9474 108.707 26.6106 108.707 26.3299ZM109.218 26.3299C109.218 26.779 109.331 27.1159 109.615 27.3966C109.899 27.6773 110.183 27.7896 110.58 27.7896C110.977 27.7896 111.318 27.6773 111.602 27.3966C111.885 27.1159 111.999 26.779 111.999 26.2738C111.999 25.9931 111.942 25.7124 111.829 25.4878C111.715 25.2632 111.545 25.0948 111.318 24.9825C111.091 24.8703 110.864 24.8141 110.58 24.8141C110.183 24.8141 109.899 24.9264 109.615 25.151C109.388 25.3755 109.218 25.7685 109.218 26.3299Z"
      fill="#63687A" />
    <path
      d="M115.177 28.1264V24.4211H116.71C116.994 24.4211 117.277 24.4773 117.448 24.5334C117.618 24.5896 117.788 24.7018 117.902 24.8703C118.015 25.0387 118.072 25.2071 118.072 25.3755C118.072 25.544 118.015 25.6562 117.959 25.8247C117.902 25.9931 117.731 26.0492 117.504 26.1615C117.731 26.2176 117.959 26.3299 118.072 26.4983C118.186 26.6668 118.242 26.8352 118.242 27.0597C118.242 27.2282 118.186 27.3966 118.129 27.565C118.072 27.7334 117.959 27.8457 117.845 27.9018C117.731 27.958 117.561 28.0703 117.391 28.0703C117.221 28.1264 116.994 28.1264 116.71 28.1264H115.177ZM115.688 25.9369H116.54C116.767 25.9369 116.937 25.9369 117.05 25.8808C117.164 25.8247 117.277 25.7685 117.334 25.7124C117.391 25.6001 117.448 25.544 117.448 25.3755C117.448 25.2632 117.391 25.151 117.334 25.0387C117.277 24.9264 117.164 24.8703 117.05 24.8703C116.937 24.8141 116.71 24.8141 116.426 24.8141H115.632V25.9369H115.688ZM115.688 27.6773H116.71C116.88 27.6773 116.994 27.6773 117.05 27.6773C117.164 27.6773 117.277 27.6211 117.334 27.565C117.391 27.5089 117.504 27.4527 117.561 27.3404C117.618 27.2282 117.618 27.172 117.618 27.0036C117.618 26.8913 117.561 26.7229 117.504 26.6668C117.448 26.5545 117.334 26.4983 117.164 26.4422C117.05 26.3861 116.823 26.3861 116.596 26.3861H115.632V27.6773H115.688Z"
      fill="#63687A" />
    <path
      d="M120.456 28.1264L121.988 24.4211H122.556L124.202 28.1264H123.578L123.124 27.0036H121.421L120.967 28.1264H120.456ZM121.648 26.6106H123.01L122.613 25.6001C122.499 25.2632 122.386 25.0387 122.329 24.8141C122.272 25.0387 122.215 25.2632 122.102 25.5439L121.648 26.6106Z"
      fill="#63687A" />
    <path d="M126.585 28.1264V24.4211H127.096V27.6773H129.082V28.1264H126.585V28.1264Z" fill="#63687A" />
    <path
      d="M54.3918 3.55884C59.0457 3.55884 62.0538 4.85007 62.0538 11.3623C62.0538 17.3694 58.989 19.1659 54.3918 19.1659H49V3.55884H54.3918ZM54.2215 16.1904C57.1161 16.1904 58.5349 15.1237 58.5349 11.3062C58.5349 7.2641 57.0593 6.36586 54.2215 6.36586H52.4621V16.1904H54.2215Z"
      fill="#202431" />
    <path
      d="M64.7217 11.3061C64.7217 5.29913 67.7297 3.27808 72.6107 3.27808C74.1431 3.27808 75.9025 3.50264 76.8674 3.83948V6.81492C75.6755 6.3658 74.2566 6.19737 72.8945 6.19737C69.8864 6.19737 68.5243 7.32018 68.5243 11.3061C68.5243 15.4605 69.6594 16.4711 72.7242 16.4711C73.3485 16.4711 73.8593 16.4711 74.4269 16.3588V12.9904H71.7594V10.1272H77.662V18.6605C76.4701 19.0535 74.5404 19.3342 72.554 19.3342C67.673 19.3342 64.7217 17.8746 64.7217 11.3061Z"
      fill="#202431" />
    <path
      d="M80.8967 17.2569C80.8967 15.5165 81.1238 15.2358 82.8832 15.2358C84.5858 15.2358 84.8696 15.5165 84.8696 17.2569C84.8696 18.9411 84.5858 19.2779 82.8832 19.2779C81.1805 19.2779 80.8967 18.9411 80.8967 17.2569Z"
      fill="#202431" />
    <path
      d="M99.4553 10.857V19.1658H96.1634V11.6991C96.1634 10.071 95.7094 9.4535 94.177 9.4535C92.8149 9.4535 91.9068 9.90262 91.5662 11.1938V19.1658H88.2744V2.04297H91.5662V8.44297C92.2473 7.32016 93.6094 6.75876 95.4256 6.75876C98.4337 6.75876 99.4553 8.16227 99.4553 10.857Z"
      fill="#202431" />
    <path
      d="M102.464 3.55872C102.464 2.04293 102.804 1.87451 104.28 1.87451C105.756 1.87451 106.096 2.04293 106.096 3.55872C106.096 5.07451 105.756 5.29907 104.28 5.29907C102.861 5.29907 102.464 5.13065 102.464 3.55872ZM102.634 6.98328H105.926V19.1096H102.634V6.98328Z"
      fill="#202431" />
    <path
      d="M116.312 6.75879L116.199 9.67809H115.858C114.326 9.67809 112.793 10.2395 112.453 12.2605V19.1658H109.218V6.98335H112.51V9.17282C113.247 7.15177 114.61 6.75879 116.085 6.75879H116.312Z"
      fill="#202431" />
    <path
      d="M128.685 13.7763L120.796 14.2816C120.909 16.022 121.931 16.8079 124.088 16.8079C125.563 16.8079 127.379 16.3588 128.174 15.9658V18.5483C127.436 18.9974 125.62 19.3904 123.463 19.3904C119.717 19.3904 117.504 18.043 117.504 13.1027C117.504 8.16231 119.717 6.81494 123.577 6.81494C127.833 6.81494 128.798 9.00441 128.798 12.1483C128.798 12.7658 128.742 13.4395 128.685 13.7763ZM125.79 11.643C125.79 10.2956 125.45 9.22898 123.52 9.22898C121.477 9.22898 120.796 10.1272 120.739 12.036L125.79 11.643Z"
      fill="#202431" />
    <path
      d="M27.2952 31C18.9415 31 12.1309 24.2632 12.1309 16C12.1309 11.3158 14.2592 7 17.9838 4.15789C20.6442 2.10526 23.8899 1 27.2952 1V6.26316C25.1137 6.26316 22.9854 6.94737 21.2827 8.31579C18.8351 10.1579 17.4517 13 17.4517 16C17.3985 21.3684 21.8148 25.7368 27.2952 25.7368C31.818 25.7368 35.5958 22.7368 36.7663 18.6316H32.8821V13.3684H42.4596V16C42.4596 24.2632 35.649 31 27.2952 31Z"
      fill="#12D2AC" />
    <path
      d="M12.2911 27.7894H0V2.47363H2.66042C17.9312 2.47363 27.0831 9.78942 27.0831 21.9999H21.7622C21.7622 10.8421 11.7591 8.31574 5.32084 7.84205V22.5263H12.2911V27.7894Z"
      fill="#0057FE" />
  </g>
  <defs>
    <clipPath id="clip0_6144_158748">
      <rect width="134" height="32" fill="white" />
    </clipPath>
  </defs>
</svg>
